<svg xmlns="http://www.w3.org/2000/svg" viewBox="0 0 1200 675" fill="none">
  <rect width="1200" height="675" fill="#0f172a"/>
  <rect x="50" y="50" width="1100" height="575" rx="20" fill="#1e293b" stroke="#3b82f6" stroke-width="2"/>
  <circle cx="200" cy="200" r="80" fill="#3b82f6" opacity="0.3"/>
  <circle cx="200" cy="200" r="50" fill="#3b82f6" opacity="0.5"/>
  <text x="200" y="215" font-family="monospace" font-size="40" fill="white" text-anchor="middle">{ }</text>
  <text x="400" y="180" font-family="Arial, sans-serif" font-size="48" fill="white" font-weight="bold">Coze Loop</text>
  <text x="400" y="230" font-family="Arial, sans-serif" font-size="24" fill="#94a3b8">AI Agent Debugging Platform</text>
  <text x="400" y="280" font-family="Arial, sans-serif" font-size="20" fill="#60a5fa">Open Source by ByteDance</text>
  <rect x="100" y="350" width="250" height="60" rx="10" fill="#3b82f6" opacity="0.2"/>
  <text x="225" y="387" font-family="monospace" font-size="18" fill="#93c5fd" text-anchor="middle">Prompt Debugging</text>
  <rect x="380" y="350" width="250" height="60" rx="10" fill="#10b981" opacity="0.2"/>
  <text x="505" y="387" font-family="monospace" font-size="18" fill="#6ee7b7" text-anchor="middle">Agent Evaluation</text>
  <rect x="660" y="350" width="250" height="60" rx="10" fill="#8b5cf6" opacity="0.2"/>
  <text x="785" y="387" font-family="monospace" font-size="18" fill="#c4b5fd" text-anchor="middle">Optimization</text>
  <rect x="100" y="440" width="250" height="60" rx="10" fill="#f59e0b" opacity="0.2"/>
  <text x="225" y="477" font-family="monospace" font-size="18" fill="#fcd34d" text-anchor="middle">OpenTelemetry</text>
  <rect x="380" y="440" width="250" height="60" rx="10" fill="#ef4444" opacity="0.2"/>
  <text x="505" y="477" font-family="monospace" font-size="18" fill="#fca5a5" text-anchor="middle">Fine-Tuning</text>
  <rect x="660" y="440" width="250" height="60" rx="10" fill="#06b6d4" opacity="0.2"/>
  <text x="785" y="477" font-family="monospace" font-size="18" fill="#67e8f9" text-anchor="middle">OpenClaw</text>
  <text x="600" y="560" font-family="Arial, sans-serif" font-size="16" fill="#475569" text-anchor="middle">github.com/coze-dev/loop | MIT License</text>
  <text x="600" y="590" font-family="Arial, sans-serif" font-size="14" fill="#334155" text-anchor="middle">13.9K Stars | 1K Forks | 100+ Contributors</text>
</svg>